#!OML:ASF E:\emotionWalksFemale\Project 1\Capture day 1\Session 1\Female1.ASF
:FULLY-SPECIFIED
:DEGREES
1941
root 10.4149 15.4534 -11.199 359.641 6.97797 -359.045
lowerback 1.32802 -0.606304 -9.50459
upperback -7.40316 -1.60825 -3.58914
thorax -8.48706 -0.274578 1.62378
lowerneck -13.5476 -2.88551 -5.99816
upperneck 27.776 -4.17335 5.45942
head 11.5207 -1.85571 2.46418
rclavicle -6.75868e-015 9.54166e-015
rhumerus 26.2381 19.6507 -38.6464
rradius 30.8804
rwrist 11.0466
rhand -1.68846 -48.9962
rfingers 7.12502
rthumb 23.9722 -77.5195
lclavicle -6.75868e-015 9.54166e-015
lhumerus 30.6868 -14.436 50.5099
lradius 30.003
lwrist -26.9534
lhand 1.06291 -40.4066
lfingers 7.12502
lthumb 26.6081 -12.2561
rfemur -26.8278 27.522 11.0884
rtibia 13.3944
rfoot -42.8985 -45.2724
rtoes 26.2162
lfemur 28.0339 -16.1274 -28.1093
ltibia 4.38633
lfoot -4.83749 10.0238
ltoes -18.5376
1942
root 10.3873 15.4285 -11.047 359.793 7.48825 -358.814
lowerback 1.28101 -0.632829 -9.41865
upperback -7.39889 -1.63254 -3.6168
thorax -8.45289 -0.294305 1.54872
lowerneck -13.7968 -2.87732 -6.1159
upperneck 27.9685 -4.18771 5.67887
head 11.6549 -1.84204 2.56663
rclavicle 7.95139e-015 -1.59028e-015
rhumerus 26.1363 19.5438 -38.7101
rradius 30.8369
rwrist 11.0834
rhand -1.72518 -48.7499
rfingers 7.12502
rthumb 23.937 -77.2778
lclavicle 7.95139e-015 -1.59028e-015
lhumerus 30.8528 -14.6257 50.5808
lradius 29.9048
lwrist -26.9298
lhand 1.10519 -40.3255
lfingers 7.12502
lthumb 26.6485 -12.1812
rfemur -26.1812 26.8825 11.4048
rtibia 13.25
rfoot -42.9585 -44.9384
rtoes 28.1651
lfemur 27.612 -16.1967 -28.0239
ltibia 5.84951
lfoot -4.46934 9.40943
ltoes -16.114
1943
root 10.3594 15.408 -10.897 359.958 7.96698 -358.606
lowerback 1.23683 -0.629033 -9.38962
upperback -7.38613 -1.6128 -3.55079
thorax -8.41215 -0.285225 1.60101
lowerneck -13.8623 -2.87235 -6.17261
upperneck 28.0004 -4.15967 5.67831
head 11.6802 -1.83275 2.58076
rclavicle 7.95139e-016 -6.99722e-014
rhumerus 26.1331 19.4838 -38.5303
rradius 30.8134
rwrist 10.8679
rhand -1.91255 -49.004
rfingers 7.12502
rthumb 23.7573 -77.5554
lclavicle 7.95139e-016 -6.99722e-014
lhumerus 31.0611 -14.5627 51.0689
lradius 29.667
lwrist -27.2188
lhand 1.24542 -40.2241
lfingers 7.12502
lthumb 26.7827 -12.1003
rfemur -25.5769 26.2375 11.7488
rtibia 13.2466
rfoot -42.5467 -44.7039
rtoes 28.7079
lfemur 27.2066 -16.2551 -27.8597
ltibia 7.10468
lfoot -3.98549 8.66764
ltoes -14.9623
1944
root 10.3324 15.3848 -10.7438 360.117 8.35963 -358.281
lowerback 0.962151 -0.621915 -9.54179
upperback -7.25024 -1.55473 -3.44325
thorax -8.10137 -0.257292 1.7929
lowerneck -14.0183 -2.96062 -5.87172
upperneck 28.0955 -4.18395 5.08399
head 11.7304 -1.88197 2.3028
rclavicle 1.98785e-015 3.02153e-014
rhumerus 26.34 18.8446 -38.7652
rradius 30.5351
rwrist 11.3665
rhand -1.83908 -49.2549
rfingers 7.12502
rthumb 23.8277 -77.7971
lclavicle 1.98785e-015 3.02153e-014
lhumerus 31.2378 -13.783 52.1716
lradius 29.3512
lwrist -28.5319
lhand 1.05654 -40.4543
lfingers 7.12502
lthumb 26.602 -12.3029
rfemur -24.9239 25.7303 11.9488
rtibia 13.245
rfoot -41.7184 -44.5099
rtoes 28.2256
lfemur 26.7334 -16.2219 -27.8166
ltibia 8.52713
lfoot -3.58095 8.0311
ltoes -13.9366
1945
root 10.3055 15.3554 -10.5859 360.286 8.81841 -357.881
lowerback 0.826873 -0.679919 -9.62018
upperback -7.23101 -1.61269 -3.40569
thorax -7.99302 -0.283376 1.87859
lowerneck -14.1166 -2.97903 -5.80356
upperneck 28.3069 -4.17294 4.89219
head 11.8266 -1.8912 2.22328
rclavicle -1.59028e-015 -1.59028e-015
rhumerus 26.4999 18.3448 -39.3002
rradius 30.174
rwrist 12.1482
rhand -1.70025 -48.8377
rfingers 7.12502
rthumb 23.9609 -77.3625
lclavicle -1.59028e-015 -1.59028e-015
lhumerus 31.1737 -15.2738 50.6528
lradius 29.8123
lwrist -26.7394
lhand 0.877061 -40.0708
lfingers 7.12502
lthumb 26.4302 -11.8934
rfemur -24.2177 25.2277 12.0493
rtibia 13.305
rfoot -40.8495 -44.2773
rtoes 28.5121
lfemur 26.3033 -16.2606 -27.8305
ltibia 9.93537
lfoot -3.05742 7.38094
ltoes -11.2022
1946
root 10.2769 15.3243 -10.4253 360.486 9.27972 -357.589
lowerback 0.948013 -0.734047 -9.45957
upperback -7.48343 -1.71216 -3.39278
thorax -8.33377 -0.321771 1.81003
lowerneck -13.7519 -2.87404 -5.96946
upperneck 28.1982 -4.09722 5.24888
head 11.7159 -1.83436 2.39848
rclavicle 9.14409e-015 3.81667e-014
rhumerus 26.2997 18.6914 -39.3854
rradius 30.1748
rwrist 12.3082
rhand -1.47833 -48.0029
rfingers 7.12502
rthumb 24.1737 -76.4996
lclavicle 9.14409e-015 3.81667e-014
lhumerus 30.6947 -16.2176 49.9534
lradius 30.1778
lwrist -26.0834
lhand 1.12122 -40.0267
lfingers 7.12502
lthumb 26.6639 -11.8847
rfemur -23.6493 24.7778 12.2517
rtibia 13.656
rfoot -40.6575 -44.0275
rtoes 28.5748
lfemur 25.9359 -16.3298 -27.6647
ltibia 11.0126
lfoot -2.08934 6.72875
ltoes -9.64194
1947
root 10.2488 15.2935 -10.256 360.603 9.69557 -357.349
lowerback 1.00165 -0.725727 -9.23794
upperback -7.58076 -1.70163 -3.37204
thorax -8.47438 -0.322609 1.70914
lowerneck -13.9181 -2.89744 -5.85769
upperneck 28.4083 -4.12659 5.14006
head 11.8291 -1.84535 2.33659
rclavicle -3.97569e-016 -4.13472e-014
rhumerus 26.2375 19.2168 -38.8518
rradius 30.352
rwrist 11.5768
rhand -1.28412 -47.5141
rfingers 7.12502
rthumb 24.3599 -75.9858
lclavicle -3.97569e-016 -4.13472e-014
lhumerus 30.5707 -16.9268 49.3611
lradius 30.3368
lwrist -25.9154
lhand 0.657059 -39.912
lfingers 7.12502
lthumb 26.2196 -11.7032
rfemur -23.1793 24.5979 12.488
rtibia 14.2531
rfoot -41.3483 -44.1385
rtoes 27.9879
lfemur 25.647 -15.7673 -27.1511
ltibia 11.939
lfoot -0.860993 5.63486
ltoes -7.45432
1948
root 10.2224 15.2723 -10.0803 360.599 10.1302 -357.105
lowerback 0.959036 -0.729345 -9.05473
upperback -7.52405 -1.67947 -3.28709
thorax -8.38556 -0.325278 1.69723
lowerneck -14.194 -2.94362 -5.85126
upperneck 28.6791 -4.14108 4.98069
head 11.9901 -1.86582 2.27574
rclavicle -2.50469e-014 -7.95139e-015
rhumerus 26.4125 19.3 -38.5666
rradius 30.3093
rwrist 11.2652
rhand -1.29923 -47.6404
rfingers 7.12502
rthumb 24.3454 -76.1141
lclavicle -2.50469e-014 -7.95139e-015
lhumerus 30.6261 -17.4849 48.8096
lradius 30.4565
lwrist -25.5007
lhand 0.567882 -39.9083
lfingers 7.12502
lthumb 26.1342 -11.6869
rfemur -22.7891 25.5936 12.3726
rtibia 14.834
rfoot -44.1946 -44.8825
rtoes 30.5001
lfemur 25.4176 -15.1789 -26.6385
ltibia 13.0442
lfoot 0.34685 4.6852
ltoes -1.49634
1949
root 10.1958 15.2618 -9.9096 360.575 10.5754 -356.973
lowerback 1.07437 -0.713364 -8.72801
upperback -7.51633 -1.64586 -3.18023
thorax -8.44539 -0.324516 1.63013
lowerneck -14.3328 -2.9653 -5.77597
upperneck 28.8752 -4.1491 4.84218
head 12.0922 -1.87522 2.21138
rclavicle -4.37326e-015 -3.33958e-014
rhumerus 26.3926 18.724 -39.0084
rradius 30.1
rwrist 12.0747
rhand -1.0531 -48.0608
rfingers 7.12502
rthumb 24.5813 -76.5026
lclavicle -4.37326e-015 -3.33958e-014
lhumerus 30.6684 -17.6355 48.833
lradius 30.3898
lwrist -25.4906
lhand 0.826865 -40.3887
lfingers 7.12502
lthumb 26.3821 -12.2041
rfemur -22.7945 28.4917 11.6991
rtibia 15.4574
rfoot -50.2407 -45.4805
rtoes 37.0461
lfemur 25.1131 -14.4379 -25.8714
ltibia 14.2391
lfoot 1.94936 3.67837
ltoes 3.88203
1950
root 10.1715 15.2679 -9.74498 360.608 11.032 -357.092
lowerback 1.32762 -0.74125 -8.03866
upperback -7.63208 -1.66633 -2.95618
thorax -8.7168 -0.360995 1.49241
lowerneck -14.5657 -2.95753 -5.66463
upperneck 29.249 -4.05784 4.48629
head 12.2733 -1.86299 2.07445
rclavicle 7.55382e-015 -3.49861e-014
rhumerus 26.3904 18.5112 -39.2995
rradius 29.938
rwrist 12.4775
rhand -1.00481 -48.2818
rfingers 7.12502
rthumb 24.6276 -76.7173
lclavicle 7.55382e-015 -3.49861e-014
lhumerus 30.3454 -17.1395 49.5998
lradius 30.1565
lwrist -26.366
lhand 0.617036 -40.6483
lfingers 7.12502
lthumb 26.1813 -12.4338
rfemur -23.0052 31.477 11.1662
rtibia 16.0336
rfoot -55.3665 -45.4732
rtoes 42.7486
lfemur 24.2741 -13.7446 -24.7593
ltibia 15.6041
lfoot 4.16449 2.6919
ltoes 3.81107
1951
root 10.1483 15.2833 -9.58484 360.596 11.5175 -357.349
lowerback 1.62373 -0.768243 -7.19247
upperback -7.72919 -1.67263 -2.72816
thorax -8.99712 -0.403808 1.27152
lowerneck -14.1962 -3.00612 -5.84804
upperneck 28.9817 -4.12511 4.60833
head 12.1017 -1.90164 2.14189
rclavicle 2.18663e-015 -4.85035e-014
rhumerus 26.3047 18.5645 -39.3961
rradius 29.8086
rwrist 12.2961
rhand -1.94839 -48.0157
rfingers 7.12502
rthumb 23.7229 -76.5716
lclavicle 2.18663e-015 -4.85035e-014
lhumerus 29.9721 -16.9736 50.0899
lradius 30.1044
lwrist -26.6777
lhand 0.27005 -40.4873
lfingers 7.12502
lthumb 25.849 -12.224
rfemur -22.5792 31.663 11.8125
rtibia 16.2499
rfoot -54.368 -45.8917
rtoes 44.3596
lfemur 23.2333 -13.0776 -23.4947
ltibia 17.4662
lfoot 6.36365 1.65934
ltoes 3.81925
